<?xml version="1.0" encoding="utf-8"?>
<!-- Generator: Adobe Illustrator 19.2.1, SVG Export Plug-In . SVG Version: 6.00 Build 0)  -->
<svg version="1.1" id="Layer_1" xmlns="http://www.w3.org/2000/svg" xmlns:xlink="http://www.w3.org/1999/xlink" x="0px" y="0px"
	 viewBox="0 0 2670 400" style="enable-background:new 0 0 2670 400;" xml:space="preserve">
<style type="text/css">
	.st0{clip-path:url(#SVGID_2_);}
	.st1{clip-path:url(#SVGID_2_);fill:#FFFFFF;}
</style>
<g>
	<path d="M701.7,295.4H566.1L529.6,400h-80.8L591.6,4.4h95.7l140,395.6h-88L701.7,295.4z M635.8,80.2l-52,153.8h101.2L635.8,80.2z"
		/>
	<path d="M1098.3,400l-89.1-135h-60.9v135h-78.6V13.8c0,0,50.3-13.8,140.5-13.8c103.5,0,165.4,36,165.4,116.7
		c0,82.4-50.9,117.8-87.4,133.9l104,149.4H1098.3z M948.4,202.5h89.1c38.2-16,55.9-36.5,55.9-78c0-43.2-31-60.3-81.9-60.3
		c-32.1,0-63.1,5.5-63.1,5.5V202.5z"/>
	<path d="M1238.8,400V5.5h269.4v66.9h-190.3v99h164.3v64.2h-164.3v97.4h195.3V400H1238.8z"/>
	<path d="M1571.9,400V5.5h269.4v66.9H1651v99h164.3v64.2H1651v97.4h195.3V400H1571.9z"/>
	<path d="M1982.9,400h-78V5.5h73L2168.8,255V5.5h78.6V400h-59.2l-205.3-262.2V400z"/>
	<path d="M2542.2,295.4h-135.6L2370.2,400h-80.8L2432.1,4.4h95.7l140,395.6h-88L2542.2,295.4z M2476.4,80.2l-52,153.8h101.2
		L2476.4,80.2z"/>
</g>
<g>
	<defs>
		<rect id="SVGID_1_" width="400" height="400"/>
	</defs>
	<clipPath id="SVGID_2_">
		<use xlink:href="#SVGID_1_"  style="overflow:visible;"/>
	</clipPath>
	<path class="st0" d="M400,18.5v362.9c0,9.9-8.6,18.6-18,18.6H18.8C8.6,400,0,391.3,0,381.4V18.5C0,8.3,8.6,0,18.8,0H382
		C391.4,0,400,8.3,400,18.5"/>
	<path class="st1" d="M163.8,151.8c0-4.9-3.2-8.1-8.1-8.1h-6.4c-5.6,0-8.1,2.8-10,11.1L121,234.1h-4.1c-6.2,0-8.7-1.5-10.9-10.2
		l-18.2-69.1l-0.2-0.8c-1.4-5.3-2.7-10.3-9-10.3h-6.8c-5.5,0-8.5,2.9-8.5,8.1c0,3.2,0.9,7.9,2.7,15l19.4,69.1
		c3.5,13,10.5,18.6,23.6,18.6h7.8c-0.8,4.3-2.6,13.3-3.7,16.7c-3.6,11.1-9.1,13.4-18.5,13.4c-7.8,0-13-0.6-16.7-1
		c-2.3-0.3-4-0.5-5.7-0.5c-4.5,0-7,2.7-7,7.4v4.6c0,5.2,2.7,6.8,5.4,8c4.6,2.1,10.4,3.2,27.8,3.2c17.5,0,30.4-9.4,34.6-25.1
		c7.7-28.5,28.3-115,28.5-115.8C161.4,165.3,163.8,156.1,163.8,151.8"/>
	<path class="st1" d="M215.4,103.3c0-8.9-0.9-17.6-11.9-17.6h-16.3c-2.9,0-10.8,0-10.8,7.8v7.2c0,3,1.5,8.1,11.5,8.1h4v135.7
		c0,7.2,1.5,11.2,9.3,11.2h5.3c7.4,0,8.9-4.5,8.9-11.2V103.3z"/>
	<path class="st1" d="M338.3,192.8c0-22.2-5.1-52.1-46-52.1c-34.2,0-49.5,18.7-49.5,60.5c0,40.8,14.2,56,52.5,56
		c17.1,0,28.3-2.3,32.7-4.3c2.7-1.2,5.4-2.7,5.4-8v-4.2c0-4.7-2.5-7.4-7-7.4c-1.6,0-3.2,0.3-5.2,0.7c-3.9,0.8-9.9,1.9-21.4,1.9
		c-28.7,0-32.3-5.2-33.2-28.9H321C334.1,207,338.3,201.4,338.3,192.8 M316.7,187.9l-49.5,0c0.7-20.4,8.5-29.1,25.5-29.1
		C309.5,158.8,316.2,168.7,316.7,187.9"/>
</g>
</svg>
