<?xml version="1.0" encoding="utf-8"?>
<!-- Generator: Adobe Illustrator 19.2.1, SVG Export Plug-In . SVG Version: 6.00 Build 0)  -->
<svg version="1.1" id="Layer_1" xmlns="http://www.w3.org/2000/svg" xmlns:xlink="http://www.w3.org/1999/xlink" x="0px" y="0px"
	 viewBox="0 0 1200 782" style="enable-background:new 0 0 1200 782;" xml:space="preserve">
<style type="text/css">
	.st0{fill:#FFFFFF;}
</style>
<g>
	<g>
		<path class="st0" d="M136.7,725.4H63.4l-19.7,56.5H0L77.2,568h51.8l75.7,213.9h-47.6L136.7,725.4z M101.1,609L73,692.2h54.8
			L101.1,609z"/>
		<path class="st0" d="M351.2,781.9l-48.2-73h-32.9v73h-42.5V573.1c0,0,27.2-7.5,76-7.5c55.9,0,89.5,19.4,89.5,63.1
			c0,44.6-27.5,63.7-47.3,72.4l56.2,80.8H351.2z M270.2,675.1h48.2c20.6-8.7,30.2-19.7,30.2-42.2c0-23.3-16.8-32.6-44.3-32.6
			c-17.4,0-34.1,3-34.1,3V675.1z"/>
		<path class="st0" d="M427.2,781.9V568.6h145.7v36.2H470v53.6h88.9v34.7H470v52.7h105.6v36.2H427.2z"/>
		<path class="st0" d="M607.3,781.9V568.6H753v36.2H650.1v53.6H739v34.7h-88.9v52.7h105.6v36.2H607.3z"/>
		<path class="st0" d="M829.6,781.9h-42.2V568.6h39.5l103.2,134.9V568.6h42.5v213.3h-32l-111-141.8V781.9z"/>
		<path class="st0" d="M1132.1,725.4h-73.3l-19.7,56.5h-43.7l77.2-213.9h51.8l75.7,213.9h-47.6L1132.1,725.4z M1096.5,609
			l-28.1,83.2h54.8L1096.5,609z"/>
	</g>
	<g>
		<path class="st0" d="M830.8,21.6v422.2c0,11.5-10,21.6-20.9,21.6H387.3c-11.9,0-21.8-10.1-21.8-21.6V21.6c0-12,10-21.6,21.8-21.6
			h422.6C820.8,0,830.8,9.6,830.8,21.6 M545.8,165.7h-7.5c-8.3,0-11,5.1-13.1,14l-21,91.1h-3.6c-7.7,0.3-11.2-0.8-13.7-10.8
			l-21.2-80.4l-0.2-0.9c-1.6-6.1-3.4-13-11.9-13h-7.9c-7.2,0-11.4,4-11.4,10.9c0,3.8,1,9.5,3.2,17.8l22.5,80.3
			c4.2,15.7,13.1,22.7,28.9,22.7h9.8c-1.3,6.7-2.9,14.4-3.9,17.5c-3.9,12.3-9.9,14.5-20.2,14.5c-9.1,0-15-0.7-19.3-1.2l-0.4,0
			c-2.5-0.3-4.5-0.5-6.4-0.5c-6,0-9.6,3.8-9.6,10.1v5.3c0,6.6,3.4,9,7.1,10.6c5.5,2.5,12.4,3.9,33,3.9c21,0,36.6-11.3,41.7-30.2
			c8.8-32.5,32.1-130.6,33.1-134.8c0.1-0.4,2.8-10.9,2.8-16C556.7,170.1,552.3,165.7,545.8,165.7 M602.1,98.1h-19
			c-3.5,0-14,0-14,10.5v8.4c0,3.3,1.5,10.9,14.9,10.9h3.2v156.4c0,8.9,2.1,14.5,12.3,14.5h6.2c10.4,0,11.8-7.3,11.8-14.5V120.1
			C617.5,111.9,617.5,98.1,602.1,98.1 M748.5,269.5c-2,0-4,0.4-6.3,0.8l-0.9,0.2c-4.7,0.9-12.6,2.5-25,2.5c-32.2,0-36-5.5-37-30.7
			h61.6c14.2,0,20.6-5.6,20.6-18.1c0-26.6-5.6-62.1-54-62.1c-40.9,0-59.1,22.2-59.1,71.9c0,48.5,17,66.6,62.6,66.6
			c19,0,34-2.9,39.9-5.6c3.7-1.6,7.2-4,7.2-10.6v-4.8C758.1,273.3,754.5,269.5,748.5,269.5"/>
		<path class="st0" d="M679.4,217.5c1.2-21.6,10-31.3,28.5-31.3h0c17.6,0,25.5,9.4,26.3,31.3L679.4,217.5z"/>
	</g>
</g>
</svg>
